<?xml version="1.0" standalone="no"?>
<!DOCTYPE svg PUBLIC "-//W3C//DTD SVG 20010904//EN"
 "http://www.w3.org/TR/2001/REC-SVG-20010904/DTD/svg10.dtd">
<svg version="1.0" xmlns="http://www.w3.org/2000/svg"
 width="612.000000pt" height="612.000000pt" viewBox="0 0 612.000000 612.000000"
 preserveAspectRatio="xMidYMid meet">
<metadata>
Created by potrace 1.14, written by Peter Selinger 2001-2017
</metadata>
<g transform="translate(0.000000,612.000000) scale(0.100000,-0.100000)"
fill="#000000" stroke="none">
<path d="M3745 4883 c-82 -25 -187 -56 -232 -70 -61 -18 -83 -29 -83 -41 0 -9
24 -39 55 -67 l55 -50 -16 -56 -16 -56 -191 3 c-106 2 -343 5 -528 8 -276 3
-340 6 -360 19 -13 8 -85 27 -159 42 -351 72 -564 72 -739 1 l-62 -25 -43 39
c-24 22 -48 40 -55 40 -18 0 -30 -36 -45 -135 l-14 -90 -79 -75 c-83 -78 -128
-106 -278 -166 -180 -73 -271 -167 -310 -322 -46 -177 -18 -337 106 -620 91
-207 109 -300 83 -432 -15 -83 -54 -168 -137 -308 -147 -246 -185 -369 -157
-508 35 -173 191 -373 349 -450 112 -54 152 -57 579 -55 377 2 394 2 388 -16
-4 -15 -40 -172 -51 -226 -2 -9 2 -17 10 -17 8 0 18 20 24 51 6 28 18 82 27
120 l16 69 289 0 289 0 6 -27 c3 -16 10 -44 14 -63 5 -19 11 -59 15 -87 6 -49
19 -72 32 -60 3 3 -5 60 -17 127 -13 66 -21 122 -19 125 3 2 164 6 359 8 l355
5 21 -26 21 -26 399 -2 c219 -1 402 -2 407 -3 23 -3 -7 -113 -37 -133 -6 -5
-2 -8 10 -8 11 0 29 9 39 20 22 25 32 25 39 3 2 -10 4 14 3 52 l-2 70 88 -2
c49 -1 90 -3 93 -5 2 -2 11 -33 20 -69 20 -77 30 -99 49 -99 27 0 27 40 0 91
-45 86 -50 84 188 85 148 0 211 4 220 13 7 6 14 43 17 82 3 38 10 70 15 70 6
1 28 10 50 21 180 92 326 272 374 460 19 74 22 93 41 273 27 244 83 393 228
605 119 173 146 246 147 380 0 208 -84 352 -285 491 -132 91 -164 139 -212
319 -24 94 -52 141 -126 217 -127 130 -276 222 -434 267 -94 27 -284 51 -328
41 -23 -5 -43 7 -131 76 -109 86 -202 150 -216 148 -4 -1 -75 -21 -158 -46z"/>
</g>
</svg>
